<svg width="41" height="36" viewBox="0 0 41 36" fill="none" xmlns="http://www.w3.org/2000/svg">
<path d="M16.1945 33.4717L16.1945 22.7813H24.7469L24.7469 33.4717C24.7469 34.6476 25.709 35.6098 26.8849 35.6098H33.2992C34.4751 35.6098 35.4373 34.6476 35.4373 33.4717L35.4373 18.5051H39.072C40.0555 18.5051 40.5259 17.2864 39.7776 16.645L21.9032 0.545211C21.0907 -0.181737 19.8507 -0.181737 19.0382 0.545211L1.16381 16.645C0.436865 17.2864 0.885862 18.5051 1.86938 18.5051H5.50412L5.50412 33.4717C5.50412 34.6476 6.46626 35.6098 7.6422 35.6098H14.0564C15.2324 35.6098 16.1945 34.6476 16.1945 33.4717Z" fill="white"/>
</svg>
