<svg width="37" height="36" viewBox="0 0 37 36" fill="none" xmlns="http://www.w3.org/2000/svg">
<path d="M0.695312 5.40425C0.695312 4.05506 1.23127 2.76114 2.18529 1.80712C3.13931 0.8531 4.43324 0.317139 5.78242 0.317139L23.5873 0.317139C24.9365 0.317139 26.2304 0.8531 27.1844 1.80712C28.1384 2.76114 28.6744 4.05506 28.6744 5.40425L28.6744 23.2091L36.3051 23.2091V28.2962C36.3051 30.32 35.5011 32.2609 34.0701 33.6919C32.6391 35.123 30.6982 35.9269 28.6744 35.9269L8.32597 35.9269C6.3022 35.9269 4.36131 35.123 2.93028 33.6919C1.49926 32.2609 0.695312 30.32 0.695312 28.2962L0.695312 5.40425ZM28.6744 33.3833C30.0236 33.3833 31.3175 32.8474 32.2715 31.8934C33.2256 30.9393 33.7615 29.6454 33.7615 28.2962V25.7527H28.6744V33.3833ZM9.59775 7.9478C9.26046 7.9478 8.93697 8.08179 8.69847 8.3203C8.45997 8.5588 8.32597 8.88228 8.32597 9.21958C8.32597 9.55687 8.45997 9.88036 8.69847 10.1189C8.93697 10.3574 9.26046 10.4914 9.59775 10.4914L19.772 10.4914C20.1093 10.4914 20.4327 10.3574 20.6713 10.1189C20.9098 9.88036 21.0437 9.55687 21.0437 9.21958C21.0437 8.88228 20.9098 8.5588 20.6713 8.3203C20.4327 8.08179 20.1093 7.9478 19.772 7.9478L9.59775 7.9478ZM9.59775 15.5785C9.26046 15.5785 8.93697 15.7125 8.69847 15.951C8.45997 16.1895 8.32597 16.5129 8.32597 16.8502C8.32597 17.1875 8.45997 17.511 8.69847 17.7495C8.93697 17.988 9.26046 18.122 9.59775 18.122L19.772 18.122C20.1093 18.122 20.4327 17.988 20.6713 17.7495C20.9098 17.511 21.0437 17.1875 21.0437 16.8502C21.0437 16.5129 20.9098 16.1895 20.6713 15.951C20.4327 15.7125 20.1093 15.5785 19.772 15.5785L9.59775 15.5785ZM9.59775 23.2091C9.26046 23.2091 8.93697 23.3431 8.69847 23.5816C8.45997 23.8201 8.32597 24.1436 8.32597 24.4809C8.32597 24.8182 8.45997 25.1417 8.69847 25.3802C8.93697 25.6187 9.26046 25.7527 9.59775 25.7527L14.6849 25.7527C15.0222 25.7527 15.3456 25.6187 15.5841 25.3802C15.8226 25.1417 15.9566 24.8182 15.9566 24.4809C15.9566 24.1436 15.8226 23.8201 15.5841 23.5816C15.3456 23.3431 15.0222 23.2091 14.6849 23.2091L9.59775 23.2091Z" fill="white"/>
</svg>
