<svg width="37" height="36" viewBox="0 0 37 36" fill="none" xmlns="http://www.w3.org/2000/svg">
<path d="M29.1836 21.4635H15.8299L19.3909 17.9025H29.1836M7.81775 21.4635L7.81775 17.0123L20.0675 4.79814C20.4058 4.45985 20.9756 4.45985 21.3317 4.79814L24.4653 7.94961C24.8214 8.30571 24.8214 8.85766 24.4653 9.21375L12.2156 21.4635M32.7446 0.0976563L4.25678 0.0976563C3.31235 0.0976563 2.4066 0.472829 1.73879 1.14064C1.07097 1.80845 0.695801 2.7142 0.695801 3.65863L0.695801 35.7074L7.81775 28.5855L32.7446 28.5855C33.689 28.5855 34.5948 28.2103 35.2626 27.5425C35.9304 26.8747 36.3056 25.9689 36.3056 25.0245L36.3056 3.65863C36.3056 2.7142 35.9304 1.80845 35.2626 1.14064C34.5948 0.472829 33.689 0.0976563 32.7446 0.0976563Z" fill="white"/>
</svg>
