<svg width="45" height="36" viewBox="0 0 45 36" fill="none" xmlns="http://www.w3.org/2000/svg">
<path d="M18.4406 0.0549316L26.8756 0.0549316L27.9884 11.183H17.3278L18.4406 0.0549316ZM16.8826 15.6342L28.4336 15.6342L29.5464 26.7622H24.8837V31.2135H29.3349C29.9252 31.2135 30.4913 31.448 30.9087 31.8653C31.3261 32.2827 31.5605 32.8488 31.5605 33.4391C31.5605 34.0293 31.3261 34.5954 30.9087 35.0128C30.4913 35.4302 29.9252 35.6647 29.3349 35.6647L15.9813 35.6647C15.391 35.6647 14.8249 35.4302 14.4075 35.0128C13.9901 34.5954 13.7557 34.0293 13.7557 33.4391C13.7557 32.8488 13.9901 32.2827 14.4075 31.8653C14.8249 31.448 15.391 31.2135 15.9813 31.2135H20.4325V26.7622H15.7698L16.8826 15.6342ZM32.907 15.6342L34.0198 26.7622H41.331C41.8249 26.7623 42.3126 26.6527 42.7591 26.4415C43.2055 26.2302 43.5996 25.9225 43.9127 25.5406C44.2259 25.1587 44.4504 24.712 44.5701 24.2328C44.6898 23.7536 44.7016 23.2538 44.6048 22.7695L43.1782 15.6342L32.907 15.6342ZM31.3491 0.0549316L32.4619 11.183L42.288 11.183L40.7768 3.63371C40.5752 2.62502 40.0304 1.71729 39.2352 1.06485C38.4399 0.412419 37.4432 0.0555529 36.4146 0.0549316L31.3491 0.0549316ZM13.9671 0.0549316L8.90383 0.0549316C7.8748 0.0550386 6.8776 0.411671 6.08188 1.06415C5.28617 1.71663 4.7411 2.62465 4.53941 3.63371L3.02822 11.183L12.8543 11.183L13.9671 0.0549316ZM12.4092 15.6342L2.13797 15.6342L0.711359 22.7695C0.614589 23.2537 0.62641 23.7532 0.745969 24.2323C0.865528 24.7113 1.08985 25.1578 1.40277 25.5397C1.71569 25.9216 2.10942 26.2293 2.5556 26.4407C3.00177 26.6521 3.48928 26.762 3.98301 26.7622H11.2964L12.4092 15.6342Z" fill="white"/>
</svg>
